<?xml version="1.0" standalone="no"?>
<!DOCTYPE svg PUBLIC "-//W3C//DTD SVG 20010904//EN"
 "http://www.w3.org/TR/2001/REC-SVG-20010904/DTD/svg10.dtd">
<svg version="1.0" xmlns="http://www.w3.org/2000/svg"
 width="300.000000pt" height="304.000000pt" viewBox="0 0 300.000000 304.000000"
 preserveAspectRatio="xMidYMid meet">
<metadata>
Created by potrace 1.10, written by Peter Selinger 2001-2011
</metadata>
<g transform="translate(0.000000,304.000000) scale(0.100000,-0.100000)"
fill="#000000" stroke="none">
<path d="M1464 2897 c-3 -8 -4 -52 -2 -98 l3 -84 68 -3 c55 -2 67 0 67 13 0
11 -12 15 -50 15 l-50 0 0 85 c0 70 -3 85 -15 85 -9 0 -18 -6 -21 -13z"/>
<path d="M1301 2890 c-18 -11 -56 -189 -43 -202 15 -15 32 -1 32 26 0 18 7 25
31 30 49 9 57 8 64 -14 7 -22 49 -29 43 -7 -6 23 -93 167 -104 171 -6 2 -16 1
-23 -4z m37 -74 c23 -38 20 -46 -16 -46 -20 0 -23 4 -18 23 3 12 6 30 6 40 0
25 5 21 28 -17z"/>
<path d="M1658 2884 c-9 -16 -31 -175 -25 -181 14 -14 37 8 37 36 0 30 1 31
45 29 30 -2 50 3 61 14 20 20 21 65 2 84 -16 17 -113 31 -120 18z m86 -37 c27
-20 10 -47 -30 -47 -36 0 -37 2 -28 38 7 25 31 29 58 9z"/>
<path d="M1123 2848 c-6 -7 -20 -38 -31 -68 l-20 -55 -11 30 c-7 17 -14 36
-16 43 -2 6 -12 12 -21 12 -22 0 -15 -34 25 -123 19 -42 36 -67 43 -64 14 4
14 16 4 57 -3 14 -2 31 3 39 7 11 18 7 54 -19 43 -30 77 -35 77 -11 0 5 -24
25 -54 43 -52 33 -53 35 -40 58 24 45 14 92 -13 58z"/>
<path d="M1916 2734 c-25 -47 -43 -90 -40 -95 10 -17 29 -9 46 21 10 18 25 30
38 30 17 0 20 -6 20 -47 0 -56 11 -78 34 -70 11 4 15 14 12 29 -3 13 -7 42
-10 65 l-6 41 40 7 c30 5 40 11 40 26 0 23 -16 24 -61 5 -19 -7 -45 -17 -58
-21 l-24 -7 22 36 c22 35 23 66 2 66 -5 0 -30 -39 -55 -86z"/>
<path d="M905 2750 c-3 -5 11 -32 31 -60 20 -28 35 -52 33 -54 -2 -2 -33 9
-68 25 -68 31 -101 36 -101 17 0 -7 23 -48 50 -91 42 -65 53 -77 65 -67 12 10
9 20 -20 63 -19 28 -33 52 -31 54 1 2 33 -11 71 -28 64 -29 95 -32 95 -10 0 6
-21 44 -47 85 -46 71 -65 88 -78 66z"/>
<path d="M2101 2625 c-49 -70 -56 -96 -28 -95 15 1 107 134 107 155 0 34 -30
11 -79 -60z"/>
<path d="M2175 2563 l-60 -65 42 -39 c57 -53 92 -53 144 0 25 25 39 48 39 65
0 31 -64 107 -89 105 -9 -1 -43 -30 -76 -66z m109 5 c21 -30 20 -50 -4 -80
-28 -36 -56 -41 -86 -15 l-24 22 41 48 c22 26 44 47 49 47 5 0 16 -10 24 -22z"/>
<path d="M1363 2590 c-462 -65 -832 -436 -894 -896 -11 -86 -8 -300 6 -335 5
-15 18 -13 108 16 151 49 242 65 370 65 177 0 326 -34 477 -109 l75 -37 40 23
c22 13 76 37 120 54 236 92 498 93 770 1 50 -16 92 -28 95 -25 3 2 5 93 5 201
-1 186 -2 202 -28 286 -51 163 -103 260 -215 399 -120 148 -336 282 -537 332
-111 28 -289 40 -392 25z m352 -45 c39 -7 88 -16 110 -20 33 -6 36 -9 20 -15
-11 -5 -46 -18 -78 -30 -79 -31 -107 -66 -106 -133 1 -66 17 -112 19 -52 1 56
31 117 75 151 51 39 152 46 211 16 42 -22 160 -108 215 -157 58 -52 199 -230
199 -251 0 -3 10 -20 22 -37 13 -18 22 -33 21 -34 -1 -2 7 -24 19 -50 45 -102
67 -228 68 -380 0 -129 -2 -143 -19 -152 -13 -7 -30 -6 -57 3 -89 31 -108 36
-224 57 -111 20 -349 6 -457 -27 -17 -5 -24 -2 -29 12 -3 11 -13 34 -22 52
-10 21 -12 36 -6 40 13 9 38 71 32 78 -3 2 -17 -14 -32 -36 -23 -36 -40 -45
-63 -37 -11 3 -8 15 11 60 17 38 17 38 -4 27 -12 -7 -19 -14 -16 -17 3 -4 2
-11 -3 -17 -4 -6 -11 -29 -14 -52 -6 -35 -3 -44 18 -64 20 -18 28 -21 37 -12
18 18 38 14 38 -8 0 -26 -34 -26 -80 0 l-35 21 38 -34 c39 -36 39 -41 -13 -64
-14 -6 -44 -20 -68 -31 l-43 -20 -80 39 c-80 39 -103 47 -236 77 -42 9 -73 21
-73 28 0 7 -8 26 -17 42 -16 28 -16 31 0 46 9 10 17 25 17 34 0 9 9 31 19 49
l20 31 -33 6 c-21 4 -38 15 -46 32 -12 22 -15 23 -23 8 -11 -20 23 -51 61 -56
22 -3 22 -4 -12 -54 -32 -48 -69 -73 -81 -54 -2 4 4 26 15 48 21 44 25 62 12
62 -10 0 -38 -67 -46 -112 -6 -30 -3 -39 15 -52 14 -9 33 -13 50 -9 22 4 29 2
29 -11 0 -21 -49 -22 -76 -1 -22 17 -38 20 -29 5 8 -12 -20 -18 -125 -25 -85
-5 -128 -14 -269 -55 -52 -15 -77 -18 -85 -10 -16 16 -20 192 -6 294 25 184
99 353 220 500 90 110 160 167 177 144 15 -21 31 -60 44 -105 7 -24 16 -43 21
-43 4 0 8 -5 8 -12 0 -13 51 -90 56 -85 2 2 -14 38 -36 81 -22 42 -40 84 -40
92 0 8 -11 34 -23 57 -23 41 -23 43 -5 61 10 11 21 17 24 13 4 -3 14 3 23 13
26 32 195 109 272 126 59 12 127 24 164 27 64 7 234 -3 310 -18z"/>
<path d="M1143 2459 c-59 -29 -83 -71 -83 -148 0 -51 3 -61 17 -61 9 0 26 -9
38 -20 l21 -20 0 33 c0 57 9 67 58 67 43 0 44 1 48 36 3 29 2 33 -7 21 -6 -9
-29 -17 -52 -18 -34 -2 -43 -8 -58 -36 -21 -38 -35 -42 -36 -10 -2 42 3 61 22
78 15 12 16 18 7 22 -18 6 4 29 34 35 26 4 51 10 58 12 9 4 45 -2 55 -9 6 -3
19 -6 30 -6 11 0 25 -6 32 -15 13 -16 18 -38 6 -27 -3 4 -11 -3 -18 -16 -7
-15 -20 -22 -38 -22 -22 1 -27 -3 -25 -17 2 -11 6 -19 11 -18 4 0 21 0 37 0
26 0 30 4 31 28 l0 27 12 -25 c6 -14 15 -28 19 -31 5 -3 11 -29 15 -57 3 -29
9 -52 12 -52 10 0 51 117 44 124 -12 11 -19 6 -20 -15 -4 -55 -27 -33 -25 24
6 112 -126 175 -245 116z"/>
<path d="M1805 2441 c-51 -23 -91 -70 -105 -122 -10 -37 -9 -41 17 -63 l28
-24 3 43 c3 44 3 44 60 63 50 17 57 22 54 43 l-3 24 20 -22 c10 -13 29 -23 40
-23 15 0 21 7 22 23 l0 22 11 -22 c10 -20 54 -40 65 -29 2 2 -3 18 -12 36 -34
66 -120 88 -200 51z m125 -26 c0 -18 -31 -20 -47 -4 -9 9 -20 5 -43 -15 -17
-14 -44 -29 -58 -32 -15 -4 -33 -13 -39 -22 -21 -26 -14 -2 8 29 26 38 71 57
132 58 35 1 47 -3 47 -14z"/>
<path d="M1523 2403 c-7 -15 -10 -19 -8 -8 4 16 -1 20 -25 21 -22 1 -30 -3
-29 -15 0 -10 2 -11 6 -4 3 10 7 10 17 0 8 -7 10 -18 6 -27 -19 -39 -29 -68
-35 -105 -9 -55 -57 -162 -64 -142 -5 13 -10 12 -32 -7 -14 -12 -26 -30 -26
-38 0 -15 3 -15 26 -3 64 32 93 80 113 180 5 28 14 55 20 62 13 16 38 5 38
-17 0 -11 5 -22 10 -25 6 -3 10 -13 10 -21 0 -17 40 -107 51 -114 4 -3 12 -18
18 -33 11 -28 36 -45 49 -33 3 4 1 11 -7 15 -24 16 -111 185 -111 218 0 13 -4
23 -9 23 -14 0 -21 42 -10 62 6 11 9 24 7 29 -2 6 -9 -2 -15 -18z"/>
<path d="M966 2364 c-4 -12 -2 -15 9 -10 18 6 19 2 4 -22 -9 -14 -8 -26 6 -53
27 -54 79 -129 90 -129 6 0 22 -12 38 -25 36 -32 37 -90 2 -160 -14 -27 -23
-41 -20 -30 16 53 18 107 4 116 -23 15 -26 11 -33 -43 -3 -29 -9 -69 -12 -89
-4 -25 -1 -39 10 -48 14 -11 16 -11 16 4 0 10 13 32 29 51 32 36 51 89 51 143
0 36 -36 87 -74 106 -12 6 -22 22 -24 37 -2 18 -8 25 -17 22 -19 -8 -57 69
-50 99 8 29 -19 57 -29 31z"/>
<path d="M1584 2346 c-14 -35 66 -163 121 -193 18 -10 18 -13 4 -30 -9 -10
-19 -25 -23 -33 -4 -8 2 -3 14 13 12 15 26 27 32 27 6 0 4 -8 -4 -17 -8 -10
-18 -25 -22 -33 -4 -8 2 -3 14 13 21 26 44 35 53 20 2 -5 7 -20 11 -36 6 -26
5 -27 -21 -21 -18 4 -24 2 -15 -4 7 -5 11 -20 9 -33 -4 -20 -1 -24 22 -25 21
-1 129 -11 151 -14 3 0 -3 -5 -13 -11 -13 -8 -39 -7 -88 1 -82 14 -104 7 -29
-9 75 -16 129 -14 137 5 8 22 -14 34 -63 34 -64 0 -104 11 -104 27 0 11 5 13
18 8 9 -4 40 -9 67 -11 60 -5 49 2 -20 12 -42 6 -46 8 -25 14 14 4 30 4 35 0
14 -10 82 -7 92 4 4 5 0 6 -10 3 -14 -5 -20 -2 -24 13 -5 20 -23 28 -23 11 0
-15 -29 -21 -55 -11 -14 5 -25 14 -25 20 0 12 -76 90 -88 90 -14 0 -42 35 -42
53 0 9 -7 17 -15 17 -13 0 -42 51 -58 100 -4 12 -6 11 -13 -4z"/>
<path d="M2015 2280 c4 -36 7 -78 7 -93 1 -34 -34 -74 -73 -82 -37 -8 -37 -22
0 -30 41 -9 126 -87 118 -109 -8 -20 -43 -21 -79 -2 -34 18 -38 13 -26 -31 7
-25 6 -39 -2 -47 -17 -17 -177 -12 -226 7 -31 11 -45 12 -53 4 -18 -18 -13
-26 27 -43 60 -25 143 -35 202 -24 54 10 76 6 51 -10 -48 -29 -186 -19 -275
21 -47 21 -61 34 -69 64 -4 19 -5 19 -6 -1 0 -12 10 -33 24 -49 14 -15 28 -40
32 -56 7 -35 -19 -79 -47 -79 -26 0 -25 -12 3 -37 32 -30 61 -43 93 -42 178 2
200 5 230 32 36 34 40 34 59 -2 8 -16 24 -32 35 -36 32 -10 22 -31 -12 -26
-15 2 -29 -41 -23 -69 9 -42 25 -51 60 -34 63 32 96 103 68 144 -12 17 -22 21
-48 16 -37 -7 -71 18 -100 74 -13 26 -15 37 -5 54 7 13 9 47 6 85 l-5 63 35
-7 c41 -7 64 7 64 39 -1 24 -22 56 -39 56 -6 0 -11 7 -11 15 0 8 -4 15 -9 15
-5 0 -17 7 -25 16 -14 14 -13 17 12 39 26 22 27 28 25 102 -1 43 -7 90 -13
103 -8 20 -9 11 -5 -40z m-257 -406 c40 -12 78 -15 134 -11 78 5 106 -5 47
-17 -81 -16 -249 8 -249 36 0 11 3 11 68 -8z m-1 -70 c55 -16 152 -15 196 1 9
4 17 2 17 -3 0 -15 -63 -27 -140 -27 -66 0 -160 28 -160 47 0 6 7 7 15 4 9 -3
41 -13 72 -22z m92 -50 c91 -1 115 -4 122 -16 6 -12 2 -20 -16 -32 -13 -9 -28
-16 -34 -16 -5 0 -11 -7 -15 -15 -10 -28 -225 -15 -262 16 -18 14 54 83 75 72
9 -4 67 -8 130 -9z m279 -127 c8 -40 -82 -136 -105 -113 -4 3 8 36 27 72 26
52 37 64 54 62 11 -2 22 -11 24 -21z"/>
<path d="M1923 2193 c-42 -4 -62 -23 -24 -23 11 0 26 -3 34 -6 10 -3 20 3 27
15 6 12 9 20 8 19 -2 -1 -22 -3 -45 -5z"/>
<path d="M1285 2170 c-49 -6 -47 -12 6 -24 17 -4 31 -1 39 9 17 20 14 21 -45
15z"/>
<path d="M1180 2089 c0 -14 30 -30 51 -27 40 6 32 26 -11 30 -22 2 -40 1 -40
-3z"/>
<path d="M1729 2079 c-7 -14 -17 -19 -30 -16 -12 3 -19 0 -19 -8 0 -8 -12 -23
-26 -34 -16 -13 -21 -21 -12 -21 8 0 19 5 26 12 8 8 12 8 12 1 0 -6 -8 -14
-17 -17 -14 -6 -15 -9 -2 -20 8 -8 24 -17 37 -21 18 -5 22 -2 23 17 1 13 1 29
0 36 -1 6 4 12 11 12 9 0 9 3 -2 10 -13 8 -13 13 3 40 10 16 16 30 13 30 -3 0
-10 -9 -17 -21z"/>
<path d="M1294 2075 c14 -38 39 -145 47 -200 7 -55 8 -53 4 25 -4 106 -23 190
-43 190 -9 0 -12 -6 -8 -15z"/>
<path d="M1255 2044 c-12 -9 -31 -13 -50 -9 -27 5 -28 4 -8 -6 26 -14 69 -5
77 16 7 18 6 18 -19 -1z"/>
<path d="M1740 1952 c0 -22 181 -45 193 -24 3 4 -29 7 -72 8 -42 0 -86 6 -98
13 -13 6 -23 8 -23 3z"/>
<path d="M1750 1914 c46 -22 161 -30 186 -15 16 10 11 11 -26 6 -39 -5 -99 2
-175 20 -11 3 -4 -2 15 -11z"/>
<path d="M1070 1802 c0 -15 28 -23 106 -29 81 -6 164 3 164 19 0 6 -7 7 -17 3
-52 -21 -174 -16 -235 10 -10 4 -18 3 -18 -3z"/>
<path d="M1367 1724 c-7 -8 21 -66 36 -76 6 -4 15 -4 20 -1 5 3 7 0 5 -8 -3
-8 -13 -14 -23 -14 -22 0 -41 -47 -28 -70 7 -11 16 -1 38 44 29 59 48 77 66
65 17 -10 9 -59 -14 -86 -12 -15 -35 -34 -52 -43 -27 -13 -28 -15 -7 -15 33 0
102 73 102 109 0 37 -15 49 -70 53 -38 2 -46 7 -48 26 -3 22 -13 28 -25 16z"/>
<path d="M1310 1700 c-21 -21 -26 -46 -12 -52 5 -1 15 -16 23 -32 8 -16 20
-31 27 -34 12 -4 -18 61 -39 83 -6 5 1 18 18 32 16 12 22 22 16 23 -7 0 -22
-9 -33 -20z"/>
<path d="M1940 1614 c13 -32 29 -54 40 -54 11 0 -17 55 -36 70 -13 11 -13 9
-4 -16z"/>
<path d="M666 2565 c-5 -14 56 -171 75 -189 17 -18 32 9 19 34 -11 20 -8 26
18 52 26 26 32 29 52 18 16 -9 25 -9 33 -1 16 16 -1 29 -89 67 -87 38 -99 40
-108 19z m79 -42 c33 -16 34 -18 18 -35 -22 -25 -27 -23 -46 17 -19 40 -19 40
28 18z"/>
<path d="M2400 2456 c0 -8 11 -28 25 -44 14 -17 25 -33 25 -36 0 -3 -17 -4
-37 -1 -128 16 -143 16 -149 1 -7 -19 72 -136 91 -136 21 0 19 7 -21 62 l-35
50 68 -7 c37 -3 78 -8 89 -10 12 -3 27 1 33 9 8 10 1 26 -30 69 -40 56 -59 70
-59 43z"/>
<path d="M540 2412 c-36 -36 -41 -85 -11 -102 30 -16 45 -12 86 20 29 23 41
28 51 19 8 -6 14 -17 14 -24 0 -20 -36 -45 -61 -43 -29 4 -34 -25 -6 -30 33
-7 62 7 80 37 46 79 -21 135 -91 76 -35 -29 -62 -32 -62 -7 0 25 19 42 48 42
17 0 23 5 20 17 -5 29 -36 26 -68 -5z"/>
<path d="M431 2287 c-17 -17 -14 -23 25 -46 21 -13 32 -26 28 -33 -5 -8 -11
-6 -19 5 -7 10 -19 17 -28 17 -24 0 -32 -22 -13 -36 10 -7 15 -17 12 -23 -4
-5 -1 -13 5 -16 6 -4 13 2 16 14 3 12 9 21 13 21 5 0 6 -10 2 -22 -3 -14 -2
-19 6 -14 7 4 12 13 12 21 0 8 16 22 35 31 35 16 36 17 13 28 -12 6 -28 23
-35 36 -7 14 -13 22 -13 18 0 -4 -11 -3 -24 2 -15 5 -27 5 -35 -3z"/>
<path d="M764 1335 c-33 -7 -125 -34 -205 -59 -215 -66 -348 -77 -451 -37
l-28 11 0 -215 0 -215 28 -11 c98 -39 217 -31 413 27 254 75 259 76 401 81
189 7 320 -20 475 -98 l73 -37 -2 217 -3 216 -75 37 c-139 68 -234 90 -410 94
-107 2 -174 -1 -216 -11z m431 -34 c117 -32 220 -76 244 -104 8 -10 11 -65 9
-188 -3 -148 -5 -174 -18 -172 -8 1 -53 17 -100 37 -47 19 -124 42 -170 51
-95 18 -334 21 -384 5 -17 -5 -58 -16 -91 -24 -33 -8 -114 -31 -180 -51 -100
-31 -138 -38 -226 -41 -119 -4 -164 6 -173 39 -9 34 -7 330 3 346 5 7 17 11
27 8 94 -28 232 -13 418 45 212 66 281 78 436 73 91 -3 158 -11 205 -24z"/>
<path d="M1834 1331 c-90 -21 -189 -59 -259 -97 l-45 -26 0 -214 c0 -118 3
-214 6 -214 3 0 18 8 32 19 37 26 134 66 223 92 54 15 113 23 215 26 160 6
237 -5 414 -62 58 -19 134 -41 170 -51 80 -20 228 -21 290 -1 l45 14 3 218 c2
205 1 217 -15 210 -52 -21 -96 -28 -173 -27 -89 1 -153 15 -390 87 -118 35
-134 38 -280 41 -126 3 -170 0 -236 -15z m396 -20 c47 -10 157 -40 245 -66
148 -44 168 -47 265 -47 58 1 116 2 130 4 l25 3 3 -181 c2 -160 0 -183 -14
-195 -13 -10 -49 -14 -143 -13 -108 1 -138 5 -211 29 -109 34 -219 65 -325 91
-41 9 -286 5 -342 -6 -94 -19 -164 -41 -227 -71 -32 -16 -63 -26 -67 -23 -11
6 -12 345 -1 359 23 33 190 98 307 120 102 19 255 17 355 -4z"/>
<path d="M794 815 c-39 -7 -138 -33 -220 -58 -234 -72 -340 -83 -442 -48 l-53
18 3 -41 c3 -38 6 -41 43 -52 51 -16 212 -17 273 -3 26 6 110 31 187 54 195
59 257 69 416 62 161 -6 257 -29 382 -91 l87 -43 0 38 c0 37 -2 40 -60 69
-189 95 -420 131 -616 95z"/>
<path d="M1875 815 c-105 -20 -163 -39 -262 -87 -83 -40 -83 -40 -83 -79 0
-21 2 -39 5 -39 3 0 22 11 43 23 46 29 146 69 232 94 51 14 101 18 235 18 185
0 186 -1 440 -80 143 -45 302 -58 390 -33 49 15 50 16 53 56 4 47 3 48 -40 26
-42 -22 -161 -29 -242 -15 -37 6 -126 30 -199 53 -200 61 -232 68 -367 73 -87
3 -149 0 -205 -10z"/>
<path d="M890 663 c-79 -5 -162 -23 -290 -63 -69 -22 -155 -46 -190 -54 -82
-20 -232 -20 -285 -1 -53 19 -51 21 -47 -25 4 -36 8 -41 41 -51 114 -34 243
-20 468 52 209 66 342 81 510 58 90 -12 229 -56 305 -96 29 -15 56 -29 61 -31
4 -2 7 14 7 36 l0 39 -88 41 c-145 69 -331 105 -492 95z"/>
<path d="M1937 659 c-122 -13 -269 -59 -363 -114 -40 -24 -44 -29 -44 -66 l0
-39 40 25 c56 35 171 79 265 101 60 14 116 19 220 18 151 -1 178 -7 450 -90
108 -33 132 -37 235 -38 147 -1 190 15 190 68 0 20 -1 36 -2 36 -2 0 -25 -7
-52 -15 -58 -18 -183 -20 -258 -4 -29 6 -126 33 -214 60 -109 32 -195 51 -264
59 -56 5 -107 9 -114 9 -6 -1 -46 -5 -89 -10z"/>
<path d="M71 351 c-27 -17 -4 -41 39 -41 l40 0 0 -114 c0 -89 3 -116 15 -126
12 -10 18 -10 30 0 12 10 15 37 15 126 l0 114 45 0 c37 0 45 3 45 19 0 10 -7
22 -16 25 -24 9 -197 7 -213 -3z"/>
<path d="M330 216 c0 -146 6 -170 35 -146 11 9 15 33 15 80 0 74 12 94 52 88
21 -3 23 -8 26 -80 3 -82 18 -112 46 -89 21 17 12 168 -11 193 -20 23 -76 23
-94 1 -12 -14 -15 -10 -19 38 -4 47 -8 54 -27 57 -23 3 -23 3 -23 -142z"/>
<path d="M923 354 c-10 -4 -13 -43 -13 -144 0 -121 2 -139 17 -144 27 -11 45
22 41 74 l-3 45 36 -3 c57 -5 106 20 117 60 20 77 -12 109 -116 114 -37 2 -73
1 -79 -2z m135 -56 c16 -14 15 -43 -2 -57 -7 -6 -31 -12 -52 -14 l-39 -2 -1
40 c-1 22 0 43 2 46 5 8 77 -2 92 -13z"/>
<path d="M1715 348 c-49 -27 -60 -81 -22 -115 12 -11 47 -28 78 -37 31 -9 59
-23 63 -31 20 -54 -84 -79 -110 -27 -19 39 -31 47 -49 32 -31 -26 6 -84 64
-100 75 -20 151 24 151 87 0 45 -26 68 -99 88 -33 10 -62 24 -66 32 -9 24 14
43 51 43 27 0 37 -5 46 -24 13 -31 33 -39 48 -21 17 20 3 53 -30 70 -34 17
-96 19 -125 3z"/>
<path d="M2167 353 c-4 -3 -7 -66 -7 -138 0 -110 3 -135 16 -146 26 -22 44 13
37 72 -7 58 14 99 51 99 30 0 36 -16 36 -100 0 -67 8 -83 38 -73 19 7 16 162
-4 191 -19 27 -69 30 -103 5 l-24 -16 6 43 c3 23 3 49 0 56 -5 15 -35 19 -46
7z"/>
<path d="M2886 343 c-9 -32 1 -264 12 -275 8 -8 16 -7 27 2 13 11 15 35 13
149 -3 131 -4 136 -25 139 -14 2 -23 -3 -27 -15z"/>
<path d="M594 257 c-20 -18 -28 -35 -31 -74 -5 -45 -2 -54 24 -83 26 -29 36
-33 77 -33 38 0 53 5 74 26 20 20 23 30 15 38 -9 9 -19 6 -41 -10 -17 -11 -39
-21 -50 -21 -19 0 -52 33 -52 52 0 5 27 8 59 8 33 0 66 3 75 6 26 10 19 53
-13 85 -38 38 -97 40 -137 6z m94 -23 c39 -27 28 -44 -28 -44 -54 0 -61 9 -30
40 24 24 29 24 58 4z"/>
<path d="M1177 273 c-4 -3 -7 -50 -7 -104 0 -72 3 -98 13 -102 26 -10 35 8 39
81 4 79 15 96 57 87 28 -7 45 13 29 32 -15 18 -65 16 -76 -3 -8 -15 -10 -15
-15 0 -6 16 -28 21 -40 9z"/>
<path d="M1359 251 c-24 -25 -29 -38 -29 -78 0 -61 19 -89 71 -103 33 -9 46
-8 77 7 24 11 38 26 40 41 4 27 -12 28 -45 2 -32 -25 -55 -25 -76 -2 -30 33
-21 42 47 42 72 0 91 13 80 54 -17 68 -112 89 -165 37z m101 -21 c31 -31 24
-40 -30 -40 -56 0 -67 17 -28 44 29 20 34 20 58 -4z"/>
<path d="M1959 251 c-24 -24 -29 -38 -29 -76 0 -25 7 -57 16 -70 33 -51 137
-50 170 1 13 20 14 27 4 39 -12 14 -17 12 -45 -15 -36 -35 -48 -37 -75 -10
-22 22 -26 70 -10 101 14 26 66 26 82 -1 16 -25 48 -26 48 -2 0 37 -38 62 -95
62 -27 0 -44 -8 -66 -29z"/>
<path d="M2434 265 c-46 -32 -56 -124 -18 -166 28 -32 77 -42 117 -25 51 21
71 56 64 113 -7 62 -40 93 -100 93 -24 0 -52 -7 -63 -15z m100 -47 c22 -31 20
-74 -4 -98 -31 -31 -57 -25 -79 17 -24 46 1 103 44 103 13 0 31 -10 39 -22z"/>
<path d="M2678 265 c-58 -32 -59 -144 -1 -182 73 -48 163 4 163 93 0 85 -83
131 -162 89z m102 -44 c32 -61 -17 -145 -67 -113 -31 20 -37 86 -11 120 16 19
66 15 78 -7z"/>
</g>
</svg>
